PathFileType	4	(x/y/z)	S05_M20_T05
DataRate	CameraRate	NumFrames	NumMarkers	Units	OrigDataRate	OrigDataStartFrame	OrigNumFrames
240	240	8	50	mm	240	330	527
Frame#	Time	Sternum			R.Acromium			L.Acromium			Top.Head			R.ASIS			L.ASIS			R.PSIS			L.PSIS			R.Great.Tro			L.Great.Tro			R.Iliac.Crest			L.Iliac.Crest			V.Sacral			R.Thigh.Upper.Post			R.Thigh.Lower.Ant			R.Thigh.Lower.Post			R.Thigh.Upper.Ant			R.Knee.Lat			R.Knee.Med			R.Shank.Upper.Post			R.Shank.Lower.Ant			R.Shank.Lower.Post			R.Shank.Upper.Ant			R.Ankle.Lat			R.Ankle.Med			R.Heel.Upper			R.Heel.Med			R.Heel.Lat			R.Toe.Lat			R.Toe.Med			R.Toe.Tip			L.Thigh.Upper.Post			L.Thigh.Lower.Ant			L.Thigh.Lower.Post			L.Thigh.Upper.Ant			L.Knee.Lat			L.Shank.Upper.Post			L.Shank.Lower.Ant			L.Shank.Lower.Post			L.Shank.Upper.Ant			L.Ankle.Lat			L.Ankle.Med			L.Heel.Upper			L.Heel.Med			L.Heel.Lat			L.Toe.Lat			L.Toe.Med			L.Toe.Tip			Cervical.Spine			Back			
		X1	Y1	Z1	X2	Y2	Z2	X3	Y3	Z3	X4	Y4	Z4	X5	Y5	Z5	X6	Y6	Z6	X7	Y7	Z7	X8	Y8	Z8	X9	Y9	Z9	X10	Y10	Z10	X11	Y11	Z11	X12	Y12	Z12	X13	Y13	Z13	X14	Y14	Z14	X15	Y15	Z15	X16	Y16	Z16	X17	Y17	Z17	X18	Y18	Z18	X19	Y19	Z19	X20	Y20	Z20	X21	Y21	Z21	X22	Y22	Z22	X23	Y23	Z23	X24	Y24	Z24	X25	Y25	Z25	X26	Y26	Z26	X27	Y27	Z27	X28	Y28	Z28	X29	Y29	Z29	X30	Y30	Z30	X31	Y31	Z31	X32	Y32	Z32	X33	Y33	Z33	X34	Y34	Z34	X35	Y35	Z35	X36	Y36	Z36	X37	Y37	Z37	X38	Y38	Z38	X39	Y39	Z39	X40	Y40	Z40	X41	Y41	Z41	X42	Y42	Z42	X43	Y43	Z43	X44	Y44	Z44	X45	Y45	Z45	X46	Y46	Z46	X47	Y47	Z47	X48	Y48	Z48	X49	Y49	Z49	X50	Y50	Z50	

330	1.3708	898.94	1224.1	369.5	813.31	1490.7	524.47	801.41	1504.7	196.85	799.18	1776.4	349.58	811.46	964.14	513.41	848.9	963.85	265.44	627.36	994.9	396.57	641.97	986.94	305.54	703.7	899.82	560.79	782.71	886.92	172.69	728.12	1059.2	536.59	765.16	1040.9	201.68	617.03	959.25	363.66	688.83	669	545.47	721.17	584.15	497.86	651.59	590.54	518.22	754.9	662.69	526.78	606.97	504.86	495.01	622.34	491.76	361.36	441.77	309.77	465.22	474.73	225.62	463.78	415.42	240.57	442.68	503.02	295.82	483.59	418.47	136.46	437.05	452.5	160.55	350.51	342.2	95.732	370.48	350.28	61.79	343.06	344.1	66.767	407.99	501.97	34.943	473.5	546.4	39.01	355.64	607	47.107	405.1	881.85	663.83	176.77	981.92	633.8	213.01	931.66	584.44	195.45	939.73	713.35	197.35	986.81	519.21	205.7	1047.3	318.93	203.53	1136.1	312.21	200.49	1090.3	260.47	221.62	1091.5	366.82	190.52	1201.6	170.78	221.18	1228.3	207.28	303.18	1198.2	93.347	279.88	1225.6	85.677	311.86	1217.6	72.071	252.63	1352.2	183.04	179.78	1367.5	219.73	293.8	1402.3	266.44	233.64	752.39	1527.5	368.68	628.42	1250.4	369.35
331	1.375	904.84	1222.7	369.37	818.92	1489.6	523.61	807.45	1503	195.87	804.89	1775.1	348.17	816.56	962.95	513.62	855.1	962.45	265.79	633	993.79	396.07	648.03	985.73	305.15	708.46	898.85	560.57	789.24	885.92	172.7	733.28	1058.1	536.37	771.54	1039.5	201.59	622.75	958.14	363.15	692.75	668.17	545.69	724.93	583.09	498.37	655.31	589.8	518.49	758.86	661.55	527.27	610.36	504.26	495.3	626.12	490.89	361.77	443.86	310.31	465.35	476.21	225.92	463.94	417.02	241.31	442.8	505.01	295.9	483.76	419.26	137.17	437.15	453.53	161.05	350.65	342.71	96.956	370.59	350.59	62.99	343.11	344.46	67.917	408.06	502.07	34.966	473.54	546.54	39.003	355.69	607.13	46.851	405.15	889.25	663.38	176.74	989.17	633.64	213.65	939.23	584.13	195.55	946.75	713.07	197.94	994.21	518.77	205.71	1053.4	318.06	203.21	1142.2	310.69	200.62	1095.9	259.26	221.32	1098.1	365.61	190.6	1206.5	168.87	221.17	1233	204.98	303.38	1202.6	91.056	279.62	1230	83.282	311.73	1222.1	69.882	252.32	1357.2	180.83	180.46	1372	217.24	294.62	1407.2	264.03	234.7	758.16	1526.2	367.63	634.23	1249.1	368.68
332	1.3792	910.78	1221.4	369.23	824.58	1488.6	522.73	813.53	1501.2	194.87	810.66	1774	346.77	821.7	961.79	513.81	861.35	961.08	266.13	638.68	992.7	395.55	654.14	984.54	304.74	713.26	897.89	560.32	795.84	884.97	172.71	738.47	1057.1	536.14	777.97	1038.1	201.5	628.53	957.04	362.62	696.72	667.37	545.91	728.73	582.06	498.88	659.09	589.09	518.76	762.87	660.44	527.76	613.82	503.69	495.58	629.97	490.01	362.18	446	310.89	465.47	477.74	226.25	464.1	418.67	242.1	442.91	507.05	296.01	483.92	420.09	137.93	437.25	454.61	161.59	350.8	343.26	98.262	370.7	350.92	64.272	343.17	344.85	69.146	408.12	502.18	34.996	473.58	546.69	39	355.75	607.26	46.596	405.19	896.7	662.96	176.7	996.48	633.49	214.26	946.85	583.84	195.63	953.83	712.81	198.51	1001.6	518.33	205.74	1059.4	317.15	202.89	1148.1	309.05	200.76	1101.4	257.98	221.01	1104.5	364.33	190.68	1211.1	166.79	221.15	1237.4	202.47	303.59	1206.7	88.589	279.32	1234	80.692	311.59	1226.1	67.513	251.99	1361.9	178.35	181.18	1376.2	214.45	295.48	1411.8	261.31	235.82	763.96	1524.9	366.55	640.08	1247.8	368.02
333	1.3833	916.76	1220.1	369.07	830.3	1487.6	521.83	819.64	1499.5	193.85	816.48	1772.8	345.38	826.87	960.65	513.99	867.67	959.76	266.46	644.4	991.62	395	660.31	983.37	304.31	718.09	896.96	560.04	802.52	884.05	172.72	743.7	1056	535.9	784.46	1036.7	201.4	634.35	955.95	362.07	700.74	666.6	546.11	732.6	581.06	499.39	662.92	588.4	519.02	766.92	659.37	528.25	617.33	503.13	495.85	633.9	489.14	362.59	448.2	311.52	465.59	479.31	226.64	464.25	420.37	242.93	443.01	509.14	296.16	484.09	420.96	138.75	437.35	455.73	162.17	350.96	343.86	99.652	370.82	351.28	65.639	343.23	345.27	70.456	408.2	502.3	35.032	473.63	546.84	39.003	355.81	607.39	46.345	405.23	904.2	662.56	176.65	1003.8	633.35	214.85	954.5	583.56	195.7	960.98	712.56	199.05	1009.1	517.89	205.76	1065.3	316.21	202.55	1153.9	307.29	200.92	1106.6	256.63	220.68	1110.9	362.96	190.76	1215.5	164.56	221.13	1241.6	199.77	303.79	1210.4	85.964	279	1237.6	77.929	311.42	1229.8	64.982	251.64	1366.3	175.62	181.93	1380.2	211.4	296.38	1416.2	258.32	237	769.79	1523.7	365.45	645.97	1246.6	367.34
334	1.3875	922.78	1218.8	368.9	836.06	1486.6	520.91	825.78	1497.8	192.82	822.37	1771.7	344	832.09	959.53	514.15	874.05	958.47	266.79	650.18	990.56	394.42	666.55	982.21	303.86	722.97	896.05	559.73	809.27	883.17	172.71	748.95	1055	535.63	791	1035.4	201.29	640.24	954.87	361.48	704.81	665.86	546.3	736.52	580.09	499.89	666.81	587.74	519.27	771.02	658.33	528.72	620.91	502.6	496.13	637.91	488.28	363.01	450.46	312.19	465.69	480.92	227.08	464.41	422.13	243.82	443.1	511.28	296.36	484.26	421.88	139.63	437.47	456.91	162.79	351.13	344.5	101.13	370.95	351.68	67.095	343.29	345.73	71.85	408.27	502.42	35.074	473.67	547	39.009	355.87	607.53	46.098	405.27	911.73	662.16	176.58	1011.2	633.19	215.41	962.17	583.28	195.76	968.17	712.3	199.56	1016.5	517.43	205.79	1071	315.22	202.2	1159.6	305.42	201.08	1111.6	255.21	220.34	1117.1	361.53	190.85	1219.6	162.18	221.09	1245.5	196.91	303.99	1213.8	83.207	278.64	1240.9	75.017	311.23	1233.2	62.311	251.27	1370.6	172.67	182.71	1384	208.1	297.31	1420.4	255.07	238.23	775.66	1522.4	364.34	651.92	1245.4	366.65
335	1.3917	928.84	1217.6	368.72	841.87	1485.6	519.96	831.95	1496.1	191.78	828.33	1770.7	342.62	837.35	958.45	514.3	880.49	957.23	267.1	656.02	989.52	393.81	672.85	981.08	303.37	727.89	895.16	559.4	816.11	882.32	172.71	754.25	1054.1	535.36	797.6	1034.1	201.17	646.19	953.82	360.86	708.93	665.14	546.48	740.5	579.15	500.4	670.75	587.11	519.51	775.18	657.31	529.19	624.55	502.1	496.39	642	487.43	363.43	452.77	312.92	465.78	482.59	227.56	464.57	423.95	244.77	443.19	513.48	296.6	484.42	422.83	140.57	437.58	458.15	163.46	351.31	345.19	102.7	371.07	352.12	68.643	343.35	346.23	73.331	408.35	502.56	35.123	473.71	547.17	39.02	355.93	607.68	45.855	405.31	919.27	661.76	176.51	1018.6	633	215.94	969.83	582.98	195.81	975.4	712.01	200.03	1024	516.94	205.83	1076.6	314.2	201.86	1165	303.46	201.25	1116.5	253.73	219.99	1123.2	360.01	190.93	1223.4	159.69	221.05	1249.1	193.9	304.19	1216.9	80.345	278.26	1243.9	71.984	311.02	1236.3	59.525	250.89	1374.6	169.52	183.52	1387.5	204.59	298.27	1424.4	251.58	239.5	781.56	1521.2	363.22	657.9	1244.2	365.96
336	1.3958	934.95	1216.4	368.54	847.73	1484.7	519	838.15	1494.4	190.72	834.34	1769.7	341.24	842.65	957.39	514.43	887	956.03	267.41	661.92	988.49	393.17	679.21	979.97	302.86	732.86	894.3	559.04	823.03	881.48	172.7	759.58	1053.1	535.06	804.27	1032.8	201.04	652.21	952.78	360.21	713.11	664.46	546.64	744.54	578.24	500.91	674.76	586.5	519.74	779.39	656.34	529.66	628.26	501.62	496.66	646.16	486.58	363.86	455.15	313.7	465.87	484.31	228.1	464.73	425.83	245.77	443.28	515.74	296.88	484.59	423.84	141.58	437.7	459.44	164.18	351.5	345.94	104.36	371.21	352.6	70.289	343.42	346.77	74.901	408.43	502.7	35.178	473.76	547.35	39.035	356	607.82	45.617	405.34	926.82	661.35	176.43	1026	632.76	216.44	977.46	582.65	195.86	982.66	711.7	200.47	1031.4	516.42	205.88	1082.1	313.13	201.52	1170.4	301.4	201.44	1121.2	252.19	219.64	1129.2	358.43	191.02	1227	157.08	221.01	1252.6	190.76	304.39	1219.8	77.407	277.86	1246.7	68.86	310.79	1239.1	56.653	250.49	1378.3	166.19	184.36	1390.7	200.88	299.26	1428.2	247.89	240.81	787.48	1520	362.07	663.94	1243.1	365.25
337	1.4	941.12	1215.2	368.34	853.62	1483.9	518.03	844.38	1492.8	189.65	840.42	1768.7	339.86	848.01	956.37	514.55	893.57	954.86	267.71	667.88	987.48	392.49	685.64	978.88	302.31	737.87	893.46	558.64	830.04	880.68	172.68	764.96	1052.2	534.74	811	1031.5	200.89	658.29	951.75	359.52	717.35	663.8	546.79	748.65	577.36	501.42	678.84	585.93	519.96	783.67	655.4	530.12	632.05	501.17	496.92	650.41	485.74	364.29	457.6	314.53	465.95	486.09	228.7	464.89	427.77	246.83	443.36	518.05	297.22	484.77	424.9	142.65	437.83	460.79	164.95	351.72	346.75	106.12	371.35	353.13	72.035	343.5	347.36	76.563	408.51	502.86	35.241	473.8	547.53	39.054	356.06	607.97	45.385	405.38	934.35	660.91	176.35	1033.4	632.45	216.89	985.06	582.27	195.9	989.94	711.33	200.86	1038.8	515.85	205.93	1087.4	312.01	201.2	1175.5	299.26	201.63	1125.7	250.6	219.3	1135.1	356.78	191.12	1230.4	154.39	220.96	1255.8	187.53	304.59	1222.4	74.428	277.45	1249.1	65.675	310.55	1241.7	53.724	250.09	1381.9	162.69	185.21	1393.8	197	300.26	1431.8	244.01	242.15	793.43	1518.9	360.92	670.03	1241.9	364.53
